<svg width="14" height="20" viewBox="0 0 14 20" fill="none" xmlns="http://www.w3.org/2000/svg">
<path d="M0.360897 5.87573C0.885527 5.48328 1.78489 5.5082 2.22625 5.95672C3.34213 7.09047 4 8.48586 4 9.99961C4 11.5134 3.34213 12.9087 2.22625 14.0425C1.78489 14.491 0.893855 14.5159 0.360897 14.1235C-0.0887861 13.7933 -0.113768 13.2701 0.260968 12.8901C1.07014 12.048 1.50427 11.0367 1.50176 9.99961C1.50176 8.92192 1.04375 7.92521 0.260968 7.10916C-0.105441 6.72916 -0.0804586 6.20589 0.360897 5.87573Z" fill="#5699D6"/>
<path d="M4.43386 2.87733C5.06341 2.19946 6.14265 2.2425 6.67228 3.01721C8.01134 4.97551 8.80078 7.38573 8.80078 10.0004C8.80078 12.615 8.01134 15.0253 6.67228 16.9836C6.14265 17.7583 5.07341 17.8013 4.43386 17.1235C3.89424 16.5532 3.86426 15.6493 4.31394 14.993C5.28495 13.5385 5.80591 11.7917 5.80289 10.0004C5.80289 8.13893 5.25328 6.41734 4.31394 5.00779C3.87425 4.35144 3.90423 3.44761 4.43386 2.87733Z" fill="#8756D6"/>
<path d="M9.23269 0.627554C9.86224 -0.264386 10.9415 -0.207755 11.4711 0.811605C12.8102 3.38832 13.5996 6.55966 13.5996 10C13.5996 13.4403 12.8102 16.6117 11.4711 19.1884C10.9415 20.2078 9.87224 20.2644 9.23269 19.3724C8.69307 18.6221 8.66309 17.4328 9.11277 16.5692C10.0838 14.6554 10.6047 12.357 10.6017 10C10.6017 7.55071 10.0521 5.28546 9.11277 3.43079C8.67308 2.56717 8.70306 1.37792 9.23269 0.627554Z" fill="#5856D6"/>
</svg>
